<?xml version="1.0" standalone="no"?><!DOCTYPE svg PUBLIC "-//W3C//DTD SVG 1.1//EN" "http://www.w3.org/Graphics/SVG/1.1/DTD/svg11.dtd"><svg t="1700316554833" class="icon" viewBox="0 0 1024 1024" version="1.1" xmlns="http://www.w3.org/2000/svg" p-id="4028" xmlns:xlink="http://www.w3.org/1999/xlink" width="200" height="200"><path d="M493.269333 764.885333c-63.872 30.464-137.258667 49.450667-216.746666 30.72-79.402667-18.773333-135.808-69.546667-126.122667-163.328 9.728-93.866667 109.994667-126.165333 192.426667-126.165333 82.517333 0 239.018667 53.418667 239.018666 53.418667s13.141333-29.44 25.941334-63.146667c12.757333-33.664 16.384-60.714667 16.384-60.714667h-333.226667v-33.408h161.877333V338.346667l-201.813333 1.493333v-42.112h201.813333V201.813333h106.026667v95.829334h216.32v42.112l-216.32 1.450666v59.562667l178.645333 1.450667s-3.242667 33.408-25.898666 94.122666c-22.613333 60.757333-43.861333 91.733333-43.861334 91.733334L938.666667 677.034667V256a170.666667 170.666667 0 0 0-170.666667-170.666667H256a170.666667 170.666667 0 0 0-170.666667 170.666667v512a170.666667 170.666667 0 0 0 170.666667 170.666667h512a170.581333 170.581333 0 0 0 164.394667-125.397334l-312.576-148.181333s-62.634667 69.290667-126.549334 99.797333z" fill="#ffffff" p-id="4029" data-spm-anchor-id="a313x.search_index.0.i0.501f3a81XGMUJK" class="selected"></path><path d="M297.984 559.914667c-104.448 6.613333-129.962667 52.565333-129.962667 94.890666 0 42.24 25.770667 101.034667 148.522667 101.034667s226.901333-123.733333 226.901333-123.733333-141.056-78.848-245.461333-72.192z" fill="#ffffff" p-id="4030" data-spm-anchor-id="a313x.search_index.0.i1.501f3a81XGMUJK" class="selected"></path></svg>