<svg width="106" height="87" viewBox="0 0 106 87" fill="none" xmlns="http://www.w3.org/2000/svg">
<path id="Vector" opacity="0.2" d="M53.9418 87L56.4195 86.2911L58.8436 85.4949L61.2119 84.6114L63.5309 83.6385L65.8027 82.5761L68.038 81.4265L70.2155 80.2066L72.3392 78.9165L74.4051 77.5562L76.4194 76.1255L78.8715 74.2372L81.2269 72.2722L83.4837 70.2263L85.6482 68.0995L87.7312 65.8855L89.707 63.6224L91.5755 61.3126L93.3367 58.9559L95.0164 56.5225L96.576 54.0764L98.0176 51.6197L99.3412 49.1459L100.577 46.6061L101.682 44.0918L102.66 41.5989L103.512 39.1251L104.262 36.5938L104.876 34.1243L105.352 31.7101L105.7 29.3491L105.893 27.4203L105.991 25.549L106 23.7373L105.923 21.9789L105.76 20.2715L105.5 18.5449L105.146 16.895L104.7 15.3132L104.166 13.7996L103.544 12.3455L102.812 10.9298L101.984 9.59499L101.057 8.33468L100.032 7.14675L98.9014 6.02694L97.698 5.01358L96.3829 4.08112L94.9478 3.22955L93.3861 2.45889L91.6849 1.76912L90.0009 1.22412L88.1753 0.770665L86.2017 0.415137L84.0629 0.166055L81.7503 0.0276758L79.5472 0.0149024L77.1767 0.121348L74.6282 0.355528L71.8887 0.730216L68.9455 1.25606L66.1803 1.85854L63.2263 2.61217L60.0728 3.53186L56.7091 4.62612L53.1244 5.90772L49.5483 4.6176L46.191 3.51696L43.0419 2.59514L40.0879 1.83725L37.3205 1.23264L34.3773 0.708927L31.6357 0.336368L29.0807 0.102188L26.7038 0L24.4921 0.0170313L22.1731 0.161797L20.0257 0.419395L18.0392 0.78131L16.2029 1.24328L14.5039 1.79893L12.792 2.49721L11.2174 3.28065L9.76937 4.14499L8.44147 5.09022L7.22513 6.11636L6.07958 7.24894L5.03914 8.45177L4.10168 9.72486L3.26075 11.0746L2.5185 12.5052L1.88351 13.9742L1.33862 15.5027L0.883834 17.0994L0.519145 18.7642L0.250992 20.5057L0.0815187 22.2279L0 24.0013L0.00429046 25.8279L0.100826 27.7099L0.291751 29.6536L0.641423 32.0294L1.12195 34.4585L1.74193 36.943L2.50563 39.487L3.3723 41.9693L4.36768 44.4729L5.49393 46.9957L6.75747 49.544L8.11325 52.0199L9.58917 54.4809L11.1895 56.9292L12.9164 59.3604L14.7291 61.7149L16.6534 64.0184L18.6914 66.2729L20.8473 68.4785L23.0848 70.5904L25.4231 72.6171L27.8665 74.565L30.4193 76.4321L32.5109 77.8414L34.6626 79.1763L36.8743 80.443L39.1526 81.6373L41.4951 82.7592L43.8635 83.7875L46.2919 84.7263L48.7782 85.5736L51.3289 86.3315L53.9418 87Z" fill="url(#paint0_linear_71_965)"/>
<defs>
<linearGradient id="paint0_linear_71_965" x1="65.4402" y1="108.502" x2="65.4402" y2="21.4977" gradientUnits="userSpaceOnUse">
<stop stop-color="white"/>
<stop offset="1" stop-color="white"/>
</linearGradient>
</defs>
</svg>
