<svg width="750" height="1969" viewBox="0 0 750 1969" fill="none" xmlns="http://www.w3.org/2000/svg">
<path d="M875 -178L875 2382M835 -178L835 2382M795 -178L795 2382M755 -178L755 2382M715 -178L715 2382M675 -178L675 2382M635 -178L635 2382M595 -178L595 2382M555 -178L555 2382M515 -178L515 2382M475 -178L475 2382M435 -178L435 2382M395 -178L395 2382M355 -178L355 2382M315 -178L315 2382M275 -178L275 2382M235 -178L235 2382M195 -178L195 2382M155 -178L155 2382M115 -178L115 2382M75 -178L74.9999 2382M35 -178L34.9999 2382M-5 -178L-5.00011 2382M-45 -178L-45.0001 2382M-85 -178L-85.0001 2382M-125 -178L-125 2382M915 -138L-165 -138M915 -98L-165 -98M915 -58L-165 -58M915 -18L-165 -18M915 22L-165 22M915 62L-165 62M915 102L-165 102M915 142L-165 142M915 182L-165 182M915 222L-165 222M915 262L-165 262M915 302L-165 302M915 342L-165 342M915 382L-165 382M915 422L-165 422M915 462L-165 462M915 502L-165 502M915 542L-165 542M915 582L-165 582M915 622L-165 622M915 662L-165 662M915 702L-165 702M915 742L-165 742M915 782L-165 782M915 822L-165 822M915 862L-165 862M915 902L-165 902M915 942L-165 942M915 982L-165 982M915 1022L-165 1022M915 1062L-165 1062M915 1102L-165 1102M915 1142L-165 1142M915 1182L-165 1182M915 1222L-165 1222M915 1262L-165 1262M915 1302L-165 1302M915 1342L-165 1342M915 1382L-165 1382M915 1422L-165 1422M915 1462L-165 1462M915 1502L-165 1502M915 1542L-165 1542M915 1582L-165 1582M915 1622L-165 1622M915 1662L-165 1662M915 1702L-165 1702M915 1742L-165 1742M915 1782L-165 1782M915 1822L-165 1822M915 1862L-165 1862M915 1902L-165 1902M915 1942L-165 1942M915 1982L-165 1982M915 2022L-165 2022M915 2062L-165 2062M915 2102L-165 2102M915 2142L-165 2142M915 2182L-165 2182M915 2222L-165 2222M915 2262L-165 2262M915 2302L-165 2302M915 2342L-165 2342M915 -178L915 2382L-165 2382L-165 -178L915 -178Z" stroke="#1362B0"/>
</svg>
